<svg xmlns="http://www.w3.org/2000/svg" viewBox="0 0 69.99 69.99"><defs><style>.cls-1{fill:#009245;}.cls-2{fill:none;}</style></defs><title>akt-19</title><g id="Слой_2" data-name="Слой 2"><g id="Слой_1-2" data-name="Слой 1"><path class="cls-1" d="M55.69,0H14.3A5.11,5.11,0,0,0,9.21,5.1V64.9A5.1,5.1,0,0,0,14.3,70H55.69a5.1,5.1,0,0,0,5.09-5.09V5.1A5.11,5.11,0,0,0,55.69,0ZM59,64.9a3.35,3.35,0,0,1-3.34,3.34H14.3A3.35,3.35,0,0,1,11,64.9V5.1A3.35,3.35,0,0,1,14.3,1.75H55.69A3.35,3.35,0,0,1,59,5.1Z"/><path class="cls-1" d="M16,11.2H48.54a1.24,1.24,0,0,0,0-2.47H16a1.24,1.24,0,0,0,0,2.47Z"/><path class="cls-1" d="M16,16.75H48.54a1.23,1.23,0,1,0,0-2.46H16a1.23,1.23,0,0,0,0,2.46Z"/><path class="cls-1" d="M16,22.56H48.54a1.24,1.24,0,0,0,0-2.47H16a1.24,1.24,0,0,0,0,2.47Z"/><path class="cls-1" d="M16,29H31a1.24,1.24,0,0,0,0-2.47H16A1.24,1.24,0,0,0,16,29Z"/><path class="cls-1" d="M24,57.86H16a1.24,1.24,0,0,0,0,2.47h8a1.24,1.24,0,1,0,0-2.47Z"/><path class="cls-1" d="M49.8,31.56,31.87,49.49a1.8,1.8,0,0,0,0,2.56l2,2a1.81,1.81,0,0,0,2.55,0L54.37,36.14a3.24,3.24,0,0,0-4.57-4.58Z"/><path class="cls-1" d="M32.32,55.51l-2-2a4,4,0,0,1-.78-1.1l-2.21,6.43,6.28-2.45,0,0A3.82,3.82,0,0,1,32.32,55.51Z"/><rect class="cls-2" width="69.99" height="69.99"/></g></g></svg>