<svg xmlns="http://www.w3.org/2000/svg" viewBox="0 0 69.99 69.99"><defs><style>.cls-1{fill:#009245;}.cls-2{fill:none;}</style></defs><title>kruppp</title><g id="Слой_2" data-name="Слой 2"><g id="Слой_1-2" data-name="Слой 1"><path class="cls-1" d="M69.91,15a.93.93,0,0,0-.42-.6l-2.42-1.62c-4.76-3.17-9.69-6.46-14.55-9.68l-.36-.12-.3-.09-.16.06a4.34,4.34,0,0,0-.45.2c-4,2.64-8,5.33-11.92,7.94q-2.47,1.64-4.93,3.29a1.07,1.07,0,0,0-.5,1c0,3.31,0,6.68,0,9.93V31H19.17v-7q0-7.14,0-14.27c0-.83-.3-1.05-.61-1.19a1.65,1.65,0,0,0-.63-.13l-6,0H6.92a1.12,1.12,0,0,0-1.2.89,2,2,0,0,0,0,.46V31L4.06,31H1.27a1.15,1.15,0,0,0-1.18.78L0,32.18V65.94H0l.09.36a1,1,0,0,0,.88.78,1.4,1.4,0,0,1,.32.06H68.78l.31-.07a1,1,0,0,0,.84-1,2.44,2.44,0,0,1,.06-.31V15.3ZM67.76,58.71v6.18H2.25V33.26H5.14c.66,0,1.28,0,1.89,0a1,1,0,0,0,.8-.84c0-.39,0-.74,0-1.08q0-7.47,0-15V10.7H17V32a1.11,1.11,0,0,0,.89,1.23,1.7,1.7,0,0,0,.4,0H34.82a1.13,1.13,0,0,0,1.23-.89,2.19,2.19,0,0,0,0-.49c0-5.74,0-10.44,0-14.81a2.32,2.32,0,0,1,1.07-2c4.26-2.82,8.7-5.77,13.57-9a2.09,2.09,0,0,1,1.2-.39,2.11,2.11,0,0,1,1.2.39c4.8,3.2,9.24,6.16,13.56,9a2.29,2.29,0,0,1,1.07,2Z"/><path class="cls-1" d="M16.92,41c0-.25-.07-.32-.32-.32H6c-.24,0-.32.07-.32.32,0,1.65,0,3.29,0,4.94,0,.27.08.35.35.35,1.76,0,3.52,0,5.28,0s3.53,0,5.3,0c.25,0,.32-.06.32-.31C16.91,44.27,16.91,42.62,16.92,41Z"/><path class="cls-1" d="M33.85,41c0-.25-.07-.32-.32-.32H22.93c-.25,0-.32.07-.32.32,0,1.66,0,3.31,0,5,0,.24.07.31.32.31h10.6c.25,0,.33-.07.32-.31C33.84,44.27,33.84,42.62,33.85,41Z"/><path class="cls-1" d="M43.76,23.67c1.68,0,3.37,0,5.05,0,.21,0,.28-.07.27-.28,0-.84,0-1.68,0-2.51s0-1.69,0-2.54c0-.21-.07-.28-.27-.27H43.76c-.21,0-.28.07-.28.27,0,1.69,0,3.37,0,5.05C43.48,23.6,43.55,23.67,43.76,23.67Z"/><path class="cls-1" d="M54.77,23.38c0,.22.07.29.29.29,1.68,0,3.35,0,5,0,.22,0,.3-.07.29-.29,0-.83,0-1.66,0-2.49s0-1.69,0-2.53c0-.23-.06-.3-.29-.3-1.67,0-3.34,0-5,0-.22,0-.29.07-.29.3C54.78,20,54.78,21.7,54.77,23.38Z"/><path class="cls-1" d="M49.08,29.63c0-.21-.07-.28-.27-.28H43.76c-.21,0-.28.08-.28.28,0,1.68,0,3.37,0,5.05,0,.21.08.28.28.27h5c.21,0,.31,0,.31-.27C49.08,33,49.08,31.31,49.08,29.63Z"/><path class="cls-1" d="M60.37,32.16c0-.84,0-1.68,0-2.51,0-.23-.06-.3-.29-.3h-5c-.22,0-.29.07-.29.29,0,1.68,0,3.35,0,5,0,.22.07.3.29.29h5c.22,0,.3-.06.29-.28C60.36,33.83,60.37,33,60.37,32.16Z"/><path class="cls-1" d="M43.76,46.24h5.05c.21,0,.28-.07.27-.27,0-.84,0-1.68,0-2.51s0-1.7,0-2.54c0-.21-.07-.28-.27-.28H43.76c-.21,0-.28.07-.28.28,0,1.68,0,3.37,0,5C43.48,46.18,43.55,46.24,43.76,46.24Z"/><path class="cls-1" d="M55.06,46.24h5c.22,0,.29-.06.29-.29v-5c0-.22-.06-.29-.29-.29h-5c-.22,0-.29.07-.29.29,0,.84,0,1.68,0,2.51s0,1.68,0,2.51C54.77,46.17,54.84,46.24,55.06,46.24Z"/><path class="cls-1" d="M48.79,51.93h-5c-.22,0-.29.07-.29.29,0,1.68,0,3.35,0,5,0,.22.07.29.29.29h5c.23,0,.3-.07.29-.29,0-.84,0-1.67,0-2.51s0-1.67,0-2.51C49.09,52,49,51.93,48.79,51.93Z"/><path class="cls-1" d="M60.08,51.93h-5c-.22,0-.29.07-.29.29,0,1.68,0,3.35,0,5,0,.23.07.3.29.29h5c.23,0,.29-.07.29-.29v-5C60.37,52,60.3,51.93,60.08,51.93Z"/><rect class="cls-2" width="69.99" height="69.99"/></g></g></svg>