<svg xmlns="http://www.w3.org/2000/svg" viewBox="0 0 69.99 69.99"><defs><style>.cls-1{fill:#009245;}.cls-2{fill:none;}</style></defs><title>nal-bez</title><g id="Слой_2" data-name="Слой 2"><g id="Слой_1-2" data-name="Слой 1"><path class="cls-1" d="M30,15.93c.95,0,1.83,0,2.71,0a.73.73,0,0,0,.81-.54c1-2.39,2-4.77,3-7.16.16-.39.33-.5.77-.35a4.51,4.51,0,0,0,4.23-.64,17.58,17.58,0,0,0,2-2.14c1.32.56,2.79,1.16,4.24,1.81.14.06.22.42.2.62a10.54,10.54,0,0,0-.25,1.71,4.76,4.76,0,0,0,2.63,4.16c.42.21.45.45.28.83s-.44,1-.71,1.68c1.07,0,2,0,2.91,0,.17,0,.38-.26.47-.44.75-1.63,1.48-3.26,2.22-4.89A3.24,3.24,0,0,0,53.77,6L42.27,1.19a23.06,23.06,0,0,0-3-1.1,3,3,0,0,0-3.43,1.69C33.92,6.34,32,10.9,30.07,15.47A3.12,3.12,0,0,0,30,15.93Z"/><path class="cls-1" d="M57.52,29.23c0-1.19-.51-1.69-1.71-1.71s-2.67,0-4,0v0c-1.33,0-2.67,0-4,0a4.64,4.64,0,0,0-4.41,4.68,4.59,4.59,0,0,0,4.33,4.67c2.72.07,5.43.05,8.15.05a1.46,1.46,0,0,0,1.64-1.64C57.54,33.28,57.54,31.26,57.52,29.23Zm-8,5a2,2,0,1,1,2-1.93A1.94,1.94,0,0,1,49.53,34.19Z"/><path class="cls-1" d="M40.65,11.68a4.68,4.68,0,0,0-4.41,4.22h11c0-.12-.06-.2-.09-.28A6.53,6.53,0,0,0,40.65,11.68Z"/><path class="cls-1" d="M27.88,15.05q1.86-4.35,3.7-8.69c.63-1.48,1.23-3,1.86-4.48l-.28-.12a3.15,3.15,0,0,0-3.94,2.31C28.58,6.34,28,8.63,27.4,10.91q-.64,2.46-1.28,4.92C27.29,16.12,27.46,16,27.88,15.05Z"/><path class="cls-1" d="M23.79,15.31c1.05-4,2.09-7.92,3.15-11.92a3.07,3.07,0,0,0-3.3,2.91c-.21,1.83-.47,3.65-.72,5.48l-.54,4.05C23.47,16.05,23.62,16,23.79,15.31Z"/><path class="cls-1" d="M28.79,38.67a3.27,3.27,0,0,1,2.78-1.58,3.21,3.21,0,0,1,1.65.46l15.24,9.11,3,0a4.44,4.44,0,0,0,4.3-3.77c.17-1.1.09-2.23.16-3.35,0-.52-.12-.7-.67-.7q-3.85,0-7.71,0a6.59,6.59,0,0,1,0-13.17c2.57,0,5.14,0,7.71,0,.55,0,.71-.16.68-.69,0-.84,0-1.69,0-2.53a4.49,4.49,0,0,0-3-4.27,8.52,8.52,0,0,0-2.72-.38q-15.73,0-31.47,0a2.05,2.05,0,0,1-1-.16,1.22,1.22,0,0,1-.6-.8c0-.24.32-.56.58-.74a1.35,1.35,0,0,1,.74-.16,10.14,10.14,0,0,1,1.35,0c.4,0,.54-.15.53-.54,0-.66,0-1.33,0-2,0-.36-.12-.5-.48-.49-.95,0-1.91,0-2.85,0a4.67,4.67,0,0,0-3.12,1.38,5.11,5.11,0,0,0-1.41,3.83q0,11.66,0,23.3a6.2,6.2,0,0,0,.15,1.61,4.62,4.62,0,0,0,4.88,3.61H24Z"/><path class="cls-1" d="M56.16,53.3,32.32,39.05a1.47,1.47,0,0,0-2,.51l-.68,1.13L56,56.45l.67-1.12A1.48,1.48,0,0,0,56.16,53.3Z"/><path class="cls-1" d="M22,53.51a1.48,1.48,0,0,0,.51,2L46.31,69.78a1.48,1.48,0,0,0,2-.51l5.59-9.35L27.55,44.16Z"/><rect class="cls-2" width="69.99" height="69.99"/></g></g></svg>