<svg xmlns="http://www.w3.org/2000/svg" viewBox="0 0 69.99 69.99"><defs><style>.cls-1{fill:#009245;}.cls-2{fill:none;}</style></defs><title>Pass</title><g id="Слой_2" data-name="Слой 2"><g id="Слой_1-2" data-name="Слой 1"><path class="cls-1" d="M69.76,42.44a4,4,0,0,0-5.38-2.39c-3.94,1.61-7.88,3.25-11.82,4.87a3.91,3.91,0,0,1-.41.15,1.72,1.72,0,0,1,0-.21,4.8,4.8,0,0,0-5-4.63c-2.46.07-4.93.06-7.4,0A32.68,32.68,0,0,1,35.86,40a101.71,101.71,0,0,1-11.33-2.23,14.64,14.64,0,0,0-5.1-.47,18.53,18.53,0,0,0-7.33,2.5c-.92.52-1.81,1.11-2.75,1.69,0-.07,0-.12-.06-.17a2.43,2.43,0,0,0-2.57-2.13H2.64A2.46,2.46,0,0,0,0,41.83V61.48c0,.16,0,.32,0,.48a2.38,2.38,0,0,0,2.22,2.28c1.62.05,3.25,0,4.88,0a2.31,2.31,0,0,0,2.16-2,1.44,1.44,0,0,1,.59-1c.2-.15.39-.32.6-.47a16.31,16.31,0,0,1,8.42-2.7,32.79,32.79,0,0,1,9.57.85c1.28.28,2.54.73,3.84.95a33.9,33.9,0,0,0,10.35.35,14.81,14.81,0,0,0,6.1-2.14c1.39-.9,2.82-1.73,4.26-2.53q7.44-4.15,14.89-8.28A4,4,0,0,0,69.76,42.44ZM6.39,61.84c-1.29,0-2.58,0-3.91,0V41.68H6.87c0,.17,0,.33,0,.48q0,9.59,0,19.17C6.91,61.74,6.79,61.85,6.39,61.84ZM67.51,44a1.6,1.6,0,0,1-.93,1.22c-2.7,1.49-5.42,3-8.11,4.5-3.88,2.2-7.75,4.43-11.62,6.65a12.9,12.9,0,0,1-5.07,1.51,31.57,31.57,0,0,1-8.84-.36c-1.3-.22-2.56-.66-3.84-1a36.11,36.11,0,0,0-10.36-.93,19.24,19.24,0,0,0-9.1,2.73l-.17.1H9.34V45.1a.74.74,0,0,1,.29-.65A22.11,22.11,0,0,1,18.14,40a12.32,12.32,0,0,1,6.09.21,105.59,105.59,0,0,0,11,2.19,43.69,43.69,0,0,0,6.67.29c1.83,0,3.66,0,5.48,0a2.3,2.3,0,0,1,.46,4.55,3.78,3.78,0,0,1-.76,0H30.69a1.24,1.24,0,0,0-1.39,1,1.2,1.2,0,0,0,1.07,1.45H47.06a5,5,0,0,0,3.62-1.33,2.22,2.22,0,0,1,.63-.33l13.93-5.75A1.57,1.57,0,0,1,67.51,44Z"/><path class="cls-1" d="M33.22,21.92A16.24,16.24,0,1,0,49.46,5.72,16.25,16.25,0,0,0,33.22,21.92ZM49.47,8.15a13.8,13.8,0,1,1-13.8,13.77A13.82,13.82,0,0,1,49.47,8.15Z"/><path class="cls-1" d="M47.28,23.2v1.73h7.08V26.6H47.28v4.45H44.94V26.6H43.73V24.93h1.21V23.2H43.73v-2h1.21V13.36h5.54a10.28,10.28,0,0,1,3.59.48,4,4,0,0,1,2,1.68,5,5,0,0,1,.74,2.67,5,5,0,0,1-.55,2.44,4.23,4.23,0,0,1-1.44,1.53,6,6,0,0,1-2.06.81,12.71,12.71,0,0,1-2.41.23Zm3-2A8.68,8.68,0,0,0,51.87,21a3.66,3.66,0,0,0,1.29-.46,2.56,2.56,0,0,0,.88-.91,3.09,3.09,0,0,0,.32-1.48,2.84,2.84,0,0,0-.29-1.33,2.56,2.56,0,0,0-.81-.89,3.61,3.61,0,0,0-1.2-.5,7,7,0,0,0-1.49-.15H47.28v5.85Z"/><rect class="cls-2" width="69.99" height="69.99"/></g></g></svg>