<svg xmlns="http://www.w3.org/2000/svg" viewBox="0 0 69.99 69.99"><defs><style>.cls-1{fill:#009245;}.cls-2{fill:none;}</style></defs><title>svoe</title><g id="Слой_2" data-name="Слой 2"><g id="Слой_1-2" data-name="Слой 1"><circle class="cls-1" cx="16.25" cy="55.07" r="6.38"/><circle class="cls-1" cx="55.5" cy="55.07" r="6.38"/><path class="cls-1" d="M20.46,33.86A10.09,10.09,0,1,0,10.37,23.77,10.1,10.1,0,0,0,20.46,33.86Zm-5.82-7.33L19,23.1l.74-5.41a.74.74,0,0,1,.84-.64.75.75,0,0,1,.63.64L22,24a1.32,1.32,0,0,1-.78,1.38h0l-5.85,2.49a.74.74,0,0,1-1-.4A.75.75,0,0,1,14.64,26.53Z"/><path class="cls-1" d="M0,39.46H41V10.29a1.75,1.75,0,0,0-1.75-1.75H1.75A1.75,1.75,0,0,0,0,10.29ZM20.23,11.7A12.07,12.07,0,1,1,8.4,23.54,12.07,12.07,0,0,1,20.23,11.7Z"/><path class="cls-1" d="M1.75,52H8.47A8.35,8.35,0,0,1,24,52H41V41.56H0v8.71A1.75,1.75,0,0,0,1.75,52Z"/><path class="cls-1" d="M63.12,19H44.72A1.75,1.75,0,0,0,43,20.75V54.18a1.75,1.75,0,0,0,1.75,1.75h2.46a8,8,0,0,1,0-1.2,8.35,8.35,0,0,1,16.7.34,8.12,8.12,0,0,1,0,.86h4.43A1.75,1.75,0,0,0,70,54.18v-17l-5.2-16.9A1.75,1.75,0,0,0,63.12,19ZM45.44,37V21.33H62.32L67.06,37Z"/><rect class="cls-2" width="69.99" height="69.99"/></g></g></svg>