<svg xmlns="http://www.w3.org/2000/svg" viewBox="0 0 70.88 70.99"><defs><style>.cls-1{fill:#009245;stroke:#009245;stroke-miterlimit:10;}.cls-2{fill:none;}</style></defs><title>vesi_1</title><g id="Слой_2" data-name="Слой 2"><g id="Слой_1-2" data-name="Слой 1"><polygon class="cls-1" points="33.19 31.4 25.56 31.4 25.56 36.8 19.72 36.8 19.72 31.4 12.57 31.4 12.57 49.05 33.19 49.05 33.19 31.4"/><path class="cls-1" d="M55.48,57.76v-24a16.84,16.84,0,1,0-7.22,0v24H37.43v-5H8v5H.5V70.49H7.72V64.74H63.16v5.75h7.22V57.76ZM38.62,17.32A13.22,13.22,0,1,1,51.83,30.53,13.23,13.23,0,0,1,38.62,17.32Z"/><path class="cls-1" d="M60.27,8.54a1.81,1.81,0,0,0-2.55,0L52.5,13.77a3.57,3.57,0,0,0-.8-.09,3.7,3.7,0,1,0,3.69,3.69,3.58,3.58,0,0,0-.2-1.19l5.08-5.09a1.79,1.79,0,0,0,0-2.55Z"/><rect class="cls-2" x="0.44" y="0.5" width="69.99" height="69.99"/></g></g></svg>