<svg xmlns="http://www.w3.org/2000/svg" viewBox="0 0 69.99 69.99"><defs><style>.cls-1{fill:#009245;}.cls-2{fill:none;}</style></defs><title>visok</title><g id="Слой_2" data-name="Слой 2"><g id="Слой_1-2" data-name="Слой 1"><path class="cls-1" d="M23.23,38.91v6.88h28v6.58h-28V70H14V52.37H9.19V45.79H14V38.91H9.19v-8H14V0H35.88q9.4,0,14.23,1.91a15.42,15.42,0,0,1,7.78,6.64A19.87,19.87,0,0,1,60.8,19.1a19.51,19.51,0,0,1-2.15,9.64A16.86,16.86,0,0,1,53,34.83,23.5,23.5,0,0,1,44.78,38a48.72,48.72,0,0,1-9.52.91Zm12-8a36.43,36.43,0,0,0,6.11-.5,14.64,14.64,0,0,0,5.11-1.84A9.85,9.85,0,0,0,50,25a11.79,11.79,0,0,0,1.29-5.85,10.84,10.84,0,0,0-1.17-5.25,9.64,9.64,0,0,0-3.2-3.51,13.85,13.85,0,0,0-4.75-2,26,26,0,0,0-5.87-.63h-13V30.89Z"/><rect class="cls-2" width="69.99" height="69.99"/></g></g></svg>