<svg xmlns="http://www.w3.org/2000/svg" viewBox="0 0 69.99 69.99"><defs><style>.cls-1{fill:#009245;}.cls-2{fill:none;}</style></defs><title>ot-5</title><g id="Слой_2" data-name="Слой 2"><g id="Слой_1-2" data-name="Слой 1"><circle class="cls-1" cx="16.25" cy="55.07" r="6.38"/><circle class="cls-1" cx="55.5" cy="55.07" r="6.38"/><path class="cls-1" d="M0,50.27A1.75,1.75,0,0,0,1.75,52H8.47A8.35,8.35,0,0,1,24,52H41V41.56H0Z"/><path class="cls-1" d="M64.79,20.24A1.75,1.75,0,0,0,63.12,19H44.72A1.75,1.75,0,0,0,43,20.75V54.18a1.75,1.75,0,0,0,1.75,1.75h2.46a8,8,0,0,1,0-1.2,8.35,8.35,0,0,1,16.7.34,8.12,8.12,0,0,1,0,.86h4.43A1.75,1.75,0,0,0,70,54.18v-17ZM45.44,37V21.33H62.32L67.06,37Z"/><path class="cls-1" d="M5.4,24.66c-.65,0-.78,1.13-.78,2,0,1.12.17,2,.8,2s.71-1.09.71-2S6,24.66,5.4,24.66Z"/><path class="cls-1" d="M23.77,22.68c-.54,0-.82.93-.81,2.95s.23,2.95.81,2.95.74-1,.74-2.95S24.34,22.68,23.77,22.68Z"/><path class="cls-1" d="M41,10.29a1.75,1.75,0,0,0-1.75-1.75H1.75A1.75,1.75,0,0,0,0,10.29V39.46H41ZM5.38,30.08c-1.56,0-2.5-1.23-2.5-3.35,0-2.35,1.23-3.4,2.53-3.4,1.54,0,2.47,1.3,2.47,3.36C7.88,29.41,6.37,30.08,5.38,30.08Zm7.56-5.22H11.49V30H9.72V24.86H8.27V23.44h4.67Zm4.26,5.22a3.86,3.86,0,0,1-1.63-.35l.27-1.39a2.9,2.9,0,0,0,1.24.31,1.35,1.35,0,0,0,1.42-1.48c0-1.16-.88-1.55-1.88-1.55a5.73,5.73,0,0,0-.62,0l.48-4.35h3.59v1.52H17.78l-.2,1.55h.26a2.78,2.78,0,0,1,1.63.66,2.64,2.64,0,0,1,.75,2A2.91,2.91,0,0,1,17.2,30.08Zm6.53,0c-1.89,0-2.53-2.18-2.53-4.41,0-2.5.8-4.49,2.6-4.49,2,0,2.47,2.34,2.47,4.41C26.27,28.7,25.14,30.08,23.73,30.08ZM32.47,30A7.16,7.16,0,0,1,32,28.38c-.16-.65-.42-1.12-.85-1.12H31V30H29.32V23.44H31v2.61h.18l1.14-2.61h1.82l-1.69,2.81c.66.21,1,1,1.17,1.87A11.35,11.35,0,0,0,34.22,30Zm6-5.09H36.6V30H34.86V23.44h3.62Z"/><rect class="cls-2" width="69.99" height="69.99"/></g></g></svg>