<svg xmlns="http://www.w3.org/2000/svg" viewBox="0 0 102.99 100.13"><defs><style>.cls-1{fill:#fff;}.cls-2{fill:#006837;}.cls-3{fill:none;}</style></defs><title>logo-ecobum-verh-103w100h</title><g id="Слой_2" data-name="Слой 2"><g id="Слой_1-2" data-name="Слой 1"><path class="cls-1" d="M7.81,100.12A11.94,11.94,0,0,1,5.89,100a14.43,14.43,0,0,1-1.6-.38,9.5,9.5,0,0,1-1.57-.66,6.14,6.14,0,0,1-1.38-1A4.54,4.54,0,0,1,.27,96.26,4.78,4.78,0,0,1,0,94.62,5.12,5.12,0,0,1,0,94c0-.19,0-.39.08-.62s.07-.39.11-.61a7.71,7.71,0,0,1,.27-1,4.87,4.87,0,0,1,.77-1.38,3.94,3.94,0,0,1,1.15-1,5.55,5.55,0,0,1-.06-.82c0-.18,0-.36,0-.62s0-.42.09-.66.1-.51.17-.77a6.87,6.87,0,0,1,.38-1,.59.59,0,0,1,0-.08.61.61,0,0,1-.07-.1,4.23,4.23,0,0,1-.59-2.28,5.36,5.36,0,0,1,0-.65q0-.27.09-.6c0-.18.07-.37.11-.57s.12-.52.19-.75a7.31,7.31,0,0,1,.29-.78,4.33,4.33,0,0,1,.93-1.36,5.66,5.66,0,0,1,1.29-.93,9.37,9.37,0,0,1,1.52-.67,13.16,13.16,0,0,1,1.81-.48A11.82,11.82,0,0,1,11,76.08a11.65,11.65,0,0,1,2.93.35,9.32,9.32,0,0,1,2.54,1.06,8.12,8.12,0,0,1,2,1.75,8.9,8.9,0,0,1,1.32,2.11,10.34,10.34,0,0,1,.68,2.26,12.22,12.22,0,0,1,.2,2.19c0,.37,0,.81-.06,1.35a16.64,16.64,0,0,1-.26,1.91,19.73,19.73,0,0,1-.54,2.14,14.14,14.14,0,0,1-1,2.44A12.71,12.71,0,0,1,17.21,96a10.81,10.81,0,0,1-2.4,2.16,11.23,11.23,0,0,1-3.15,1.45A13.32,13.32,0,0,1,7.81,100.12Z"/><path class="cls-1" d="M28.31,99.92c-.5,0-.88,0-1.22,0a5,5,0,0,1-1.56-.4A4.07,4.07,0,0,1,24,98.33l-.3.31a4.4,4.4,0,0,1-1.65,1,5.84,5.84,0,0,1-1.3.27c-.34,0-.71,0-1.16,0s-.83,0-1.16,0A5.61,5.61,0,0,1,17,99.53,4.1,4.1,0,0,1,15.1,98a3.92,3.92,0,0,1-.56-3L17.6,79.77a3.92,3.92,0,0,1,1.29-2.31,4.26,4.26,0,0,1,1.63-.9,6.55,6.55,0,0,1,1.23-.23,10.2,10.2,0,0,1,1.17,0,9.83,9.83,0,0,1,1.15,0,5.48,5.48,0,0,1,1.32.28,4.14,4.14,0,0,1,1.53,1,4.39,4.39,0,0,1,1.72-1,5.55,5.55,0,0,1,1.3-.25,10.8,10.8,0,0,1,1.22,0,9.91,9.91,0,0,1,1.16,0,5.08,5.08,0,0,1,1.39.31,4,4,0,0,1,2,1.6l0,.05a3.93,3.93,0,0,1,.57,2,4.68,4.68,0,0,1-.41,1.87,8,8,0,0,1-.56,1l-1.64,2.86a17.87,17.87,0,0,1-1.09,1.72c-.13.17-.25.34-.38.5l.18.52a17.44,17.44,0,0,1,.46,1.86L33.49,94a8.08,8.08,0,0,1,.18,1.6,4.31,4.31,0,0,1-.62,2.24,4.26,4.26,0,0,1-2,1.65,5.25,5.25,0,0,1-1.56.36C29.16,99.9,28.77,99.92,28.31,99.92Z"/><path class="cls-1" d="M38.7,100.13A13.25,13.25,0,0,1,35,99.65a8.7,8.7,0,0,1-3.34-1.8,8,8,0,0,1-2.19-3.19,10.59,10.59,0,0,1-.64-3.8,19,19,0,0,1,.25-3,16.34,16.34,0,0,1,.85-3.21,15.57,15.57,0,0,1,1.57-3.1A12.7,12.7,0,0,1,34,78.73a11.78,11.78,0,0,1,3.51-2,14,14,0,0,1,8.1-.21A8.51,8.51,0,0,1,49,78.39a8.06,8.06,0,0,1,2.17,3.2,10.87,10.87,0,0,1,.64,3.81,18.61,18.61,0,0,1-1.06,6.09,15.71,15.71,0,0,1-1.54,3.1,12,12,0,0,1-6,4.81A13.1,13.1,0,0,1,38.7,100.13Z"/><path class="cls-1" d="M50.13,99.84a4.9,4.9,0,0,1-1.53-.24,4.28,4.28,0,0,1-2.81-3.14,4.5,4.5,0,0,1,0-2l2.83-14.14a4.75,4.75,0,0,1,1.86-3,4.88,4.88,0,0,1,2.87-.94h9.22a3.94,3.94,0,0,1,3.95,4.1,7.79,7.79,0,0,1,0,.79c0,.18-.06.38-.1.61a7,7,0,0,1-.21.85,5.79,5.79,0,0,1-.37,1A4.78,4.78,0,0,1,64.88,85a4.18,4.18,0,0,1-1.09.78L64,86a7,7,0,0,1,1.14,2.11,7.2,7.2,0,0,1,.38,2.3,9.41,9.41,0,0,1-.15,1.63,8.84,8.84,0,0,1-.5,1.77A9.94,9.94,0,0,1,64,95.61a8.77,8.77,0,0,1-1.49,1.69,10.22,10.22,0,0,1-2,1.31,10,10,0,0,1-2.44.84,15.53,15.53,0,0,1-1.81.3c-.63.06-1.31.09-2.09.09Z"/><path class="cls-1" d="M65.72,100.08a8.64,8.64,0,0,1-1-.06,9.14,9.14,0,0,1-1.09-.21,7.23,7.23,0,0,1-1-.33,4.46,4.46,0,0,1-1.62-1.09,4.24,4.24,0,0,1-1.19-3,6.14,6.14,0,0,1,0-.62A7.4,7.4,0,0,1,60,94c0-.24.08-.48.14-.73a6.84,6.84,0,0,1,.37-1.16,5,5,0,0,1,.71-1.19,4,4,0,0,1,2.26-1.43l-2.17-7.37a6.63,6.63,0,0,1-.26-1.46,4,4,0,0,1,1.3-3.2,4.34,4.34,0,0,1,2.42-1.1,10.43,10.43,0,0,1,1.47-.09,11.44,11.44,0,0,1,1.27,0,5.19,5.19,0,0,1,1.65.41,4.14,4.14,0,0,1,2,2c.08.19.16.38.23.58l.37-.65A4.45,4.45,0,0,1,73,77.31a4.5,4.5,0,0,1,1.69-.81,6.48,6.48,0,0,1,1.29-.2c.33,0,.72,0,1.19,0s.91,0,1.25,0A4.22,4.22,0,0,1,81,77.43a3.92,3.92,0,0,1,1,3.94,5.69,5.69,0,0,1-.63,1.41L75.11,93.31a30.27,30.27,0,0,1-1.86,2.85,11.23,11.23,0,0,1-2.11,2.21,7.57,7.57,0,0,1-2.76,1.39A10.66,10.66,0,0,1,65.72,100.08Z"/><path class="cls-1" d="M94.71,99.92c-.46,0-.84,0-1.16,0a5.46,5.46,0,0,1-1.39-.32,4.22,4.22,0,0,1-1.42-.91,4.53,4.53,0,0,1-2,1.07,8.83,8.83,0,0,1-2.08.21,6.6,6.6,0,0,1-2.53-.41,4.45,4.45,0,0,1-1.31-.81,4.25,4.25,0,0,1-1.51.89,5.42,5.42,0,0,1-1.3.28c-.33,0-.7,0-1.15,0s-.83,0-1.16,0a5.48,5.48,0,0,1-1.38-.32,4,4,0,0,1-2.14-1.92,3.83,3.83,0,0,1-.3-2.6l2.88-14.45a6,6,0,0,1,.53-1.53,5.07,5.07,0,0,1,1.16-1.47A4.88,4.88,0,0,1,80,76.65a5.12,5.12,0,0,1,1.73-.3h2.07a7.66,7.66,0,0,1,1.79.2,4.94,4.94,0,0,1,2.2,1.14,5,5,0,0,1,1.36,2,6.91,6.91,0,0,1,.33,1.34l.55-1a11.69,11.69,0,0,1,.72-1.19,6.11,6.11,0,0,1,1.34-1.39A5.51,5.51,0,0,1,94,76.6a7.06,7.06,0,0,1,1.88-.25h2.34a5.23,5.23,0,0,1,1.84.33,4.42,4.42,0,0,1,1.9,1.41,4.37,4.37,0,0,1,.89,2.17,5.26,5.26,0,0,1,0,1.58l0,.13-2.93,14.7,0,.17a4.22,4.22,0,0,1-.67,1.34,4.09,4.09,0,0,1-2,1.41,5.59,5.59,0,0,1-1.32.28C95.52,99.9,95.15,99.92,94.71,99.92Z"/><path class="cls-1" d="M12.84,80.51,11.77,79A50.16,50.16,0,1,1,103,50.16,49.79,49.79,0,0,1,93.7,79.25l-1.08,1.52Zm4.84-41c8.74,16.43,14.88,19,17.86,19,2.24,0,4.54-1.44,6.84-4.3l.35-.42.32-.44c1.53-4,1.59-7.11.19-9.18-2.19-3.24-8.44-5-17.58-5C22.71,39.11,19.93,39.29,17.68,39.49ZM66.49,52.43c2.18,5.16,4.64,5.17,5.47,5.17h0c2.66,0,7.44-2,15.41-10.75-3.76-1.22-9-2.65-13.51-2.65-2.06,0-4.82.33-6.22,1.86-1.05,1.15-1.46,3.1-1.22,5.8ZM63.32,33.35a6.18,6.18,0,0,0,3.56,1.7c1.06,0,4.53-1,8-12.25C64.8,24.36,62.4,27,61.84,28.22S61.68,31,63,33.09ZM43.76,15.54c-1.69,8.15-.64,11.24.24,12.39a2.81,2.81,0,0,0,2.52,1,10.31,10.31,0,0,0,1.95-.21h.06l.11-.06c1.85-1,2.82-2.09,2.88-3.17S50.86,21.17,43.76,15.54Z"/><path class="cls-2" d="M99.4,50.16A46.58,46.58,0,1,0,14.71,76.93L49.37,77a56.6,56.6,0,0,0,3.76-14.55q-1-1-2-1.83c-.42-.36-.85-.72-1.28-1.06l-.08-.05c-.72-.57-1.45-1.12-2.19-1.62s-1.58-1-2.39-1.5C29.42,76,13.39,38.55,12.07,36.45c2.53,0,44.43-7.16,34.15,18.61l-.24.33c.67.38,1.34.78,2,1.23s1.46,1,2.2,1.53l.72.54c.44.34.88.69,1.32,1.06s.74.61,1.1.93c0-.44.09-.89.13-1.34,0-.18,0-.36,0-.54.05-.66.09-1.31.13-1.95a61.94,61.94,0,0,0-.12-8.45c-.09-1.15-.22-2.27-.38-3.36a41.65,41.65,0,0,0-4-12.83C33.22,35.36,41.29,11,41.55,9.43c1.17,1,22.93,14.52,8.83,22.32a48.09,48.09,0,0,1,4,11.22,54.7,54.7,0,0,1,5.73-7.77C50.27,20.12,78.19,18.9,79.84,18.57c-.57,1.55-5.78,28.21-18.8,17.57a45.26,45.26,0,0,0-6.17,9.35,66.48,66.48,0,0,1,1.07,10,47.06,47.06,0,0,1,6.92-3.27C61,31.55,91.62,44.7,93.58,45.2c-1.48,1.44-22.1,29-30.53,8.31A40.64,40.64,0,0,0,56,57.11c0,1.91,0,3.85-.19,5.82,0,.71-.12,1.42-.19,2.14a69,69,0,0,1-2.34,12l37.51.12A46.38,46.38,0,0,0,99.4,50.16Z"/><path class="cls-1" d="M55.79,62.93c.14-2,.21-3.91.19-5.82a40.64,40.64,0,0,1,7.07-3.6c8.43,20.73,29.05-6.87,30.53-8.31-2-.5-32.6-13.65-30.72,7a47.06,47.06,0,0,0-6.92,3.27,66.48,66.48,0,0,0-1.07-10A45.26,45.26,0,0,1,61,36.14c13,10.64,18.23-16,18.8-17.57-1.65.33-29.57,1.55-19.76,16.63A54.7,54.7,0,0,0,54.35,43a48.09,48.09,0,0,0-4-11.22c14.1-7.8-7.66-21.31-8.83-22.32-.26,1.53-8.33,25.93,7.61,22.78a41.65,41.65,0,0,1,4,12.83c.16,1.09.29,2.21.38,3.36a61.94,61.94,0,0,1,.12,8.45c0,.64-.08,1.29-.13,1.95,0,.18,0,.36,0,.54,0,.45-.08.9-.13,1.34-.36-.32-.73-.63-1.1-.93s-.88-.72-1.32-1.06l-.72-.54c-.74-.55-1.47-1.06-2.2-1.53s-1.35-.85-2-1.23l.24-.33C56.5,29.29,14.6,36.41,12.07,36.45c1.32,2.1,17.35,39.53,33.11,20,.81.47,1.6,1,2.39,1.5s1.47,1,2.19,1.62l.08.05c.43.34.86.7,1.28,1.06q1,.87,2,1.83A56.6,56.6,0,0,1,49.37,77h3.89a69,69,0,0,0,2.34-12C55.67,64.35,55.74,63.64,55.79,62.93Z"/><path class="cls-2" d="M35.54,59c-3.8,0-10-3.53-18.61-19.86,2.38-.23,5.45-.45,8.73-.45,9.3,0,15.69,1.85,18,5.22,1.5,2.22,1.45,5.47-.16,9.68l-.35.47-.37.46C40.36,57.44,37.93,59,35.54,59ZM72,58.08c-.9,0-3.63,0-6-5.54L66,51.9c-.25-2.83.2-4.9,1.34-6.16s3.43-2,6.57-2c4.84,0,10.54,1.63,14.34,2.9C79.83,56,74.78,58.08,72,58.08ZM66.88,35.52A6.57,6.57,0,0,1,63,33.72l-.38-.31c-1.45-2.26-1.86-4.07-1.23-5.4.76-1.57,3.62-4.28,14.19-5.79C72,34.14,68.37,35.52,66.88,35.52ZM46.52,29.37a3.22,3.22,0,0,1-2.89-1.15c-1-1.25-2.12-4.62-.17-13.52C51,20.53,52.08,23.9,52,25.47c-.07,1.25-1.12,2.44-3.12,3.55l-.18.1-.13,0A11.29,11.29,0,0,1,46.52,29.37Z"/><path class="cls-2" d="M16.47,82.8a5.11,5.11,0,0,0-.78-1.26,4.86,4.86,0,0,0-1.16-1A5.81,5.81,0,0,0,13,79.9a8.19,8.19,0,0,0-2-.23,8.76,8.76,0,0,0-1.58.14,10.66,10.66,0,0,0-1.31.35,6.37,6.37,0,0,0-1,.42,2.92,2.92,0,0,0-.5.32,1.32,1.32,0,0,0-.19.29,2.8,2.8,0,0,0-.13.38,4,4,0,0,0-.12.44l-.09.44c0,.15,0,.27-.05.38s0,.19,0,.25a.81.81,0,0,0,.07.41.24.24,0,0,0,.22.11,1.06,1.06,0,0,0,.46-.19A8.15,8.15,0,0,1,7.59,83a6.7,6.7,0,0,1,1.18-.42,5.5,5.5,0,0,1,1.52-.19,4.29,4.29,0,0,1,1.4.21,2.83,2.83,0,0,1,1,.63,2.65,2.65,0,0,1,.64,1,4.31,4.31,0,0,1,.22,1.46,3,3,0,0,1,0,.41c0,.15,0,.3-.05.47H6.78a.38.38,0,0,0-.28.13,1.38,1.38,0,0,0-.22.32,4.72,4.72,0,0,0-.16.45c0,.15-.07.31-.1.46s0,.28,0,.4a1.66,1.66,0,0,0,0,.27A.84.84,0,0,0,6,89a.25.25,0,0,0,.24.14h6.79a8.34,8.34,0,0,1-.79,2,5.62,5.62,0,0,1-1.15,1.45,4.41,4.41,0,0,1-1.44.86A4.86,4.86,0,0,1,8,93.8a5.84,5.84,0,0,1-1.65-.19,4.83,4.83,0,0,1-1-.43,3.62,3.62,0,0,1-.62-.43.62.62,0,0,0-.36-.19.3.3,0,0,0-.24.13,1,1,0,0,0-.19.34,2.8,2.8,0,0,0-.12.46q-.06.26-.09.48c0,.16,0,.3-.06.41s0,.2,0,.24a1.27,1.27,0,0,0,.06.43,1,1,0,0,0,.23.33,2.51,2.51,0,0,0,.57.39,5.19,5.19,0,0,0,.91.38,8.67,8.67,0,0,0,1.14.27,7.8,7.8,0,0,0,1.31.11,9.77,9.77,0,0,0,2.82-.38,7.8,7.8,0,0,0,2.18-1,7.36,7.36,0,0,0,1.63-1.45A10,10,0,0,0,15.59,92a10.27,10.27,0,0,0,.76-1.83,17.23,17.23,0,0,0,.44-1.75c.1-.56.17-1.06.21-1.51s.05-.81.05-1.08a8.93,8.93,0,0,0-.14-1.55A6.41,6.41,0,0,0,16.47,82.8Z"/><path class="cls-2" d="M32.69,80.31a.28.28,0,0,0,0-.17.4.4,0,0,0-.21-.14,2,2,0,0,0-.47-.1c-.21,0-.48,0-.8,0s-.66,0-.89,0a3.35,3.35,0,0,0-.56.1.92.92,0,0,0-.34.19,1.19,1.19,0,0,0-.23.3l-1.75,3.25a11.36,11.36,0,0,1-.8,1.29,4.69,4.69,0,0,1-.79.85,2.68,2.68,0,0,1-.85.48,3.13,3.13,0,0,1-1,.15h-.73l1.23-6.12a.33.33,0,0,0,0-.24.38.38,0,0,0-.23-.15,2.19,2.19,0,0,0-.49-.1q-.3,0-.78,0t-.81,0a2.64,2.64,0,0,0-.53.1.87.87,0,0,0-.32.15.39.39,0,0,0-.12.24l-3.09,15.4a.32.32,0,0,0,0,.24.46.46,0,0,0,.24.16,1.74,1.74,0,0,0,.48.1c.21,0,.48,0,.8,0s.59,0,.8,0a2.17,2.17,0,0,0,.53-.1.81.81,0,0,0,.31-.16.44.44,0,0,0,.13-.24l1.31-6.52h.73a3.51,3.51,0,0,1,1,.14,1.74,1.74,0,0,1,.75.47,2.32,2.32,0,0,1,.52.87,6.91,6.91,0,0,1,.34,1.33l.62,3.63a1.71,1.71,0,0,0,.08.29.57.57,0,0,0,.23.19,1.59,1.59,0,0,0,.48.1c.2,0,.49,0,.85,0s.63,0,.86,0a2.22,2.22,0,0,0,.54-.11A.59.59,0,0,0,30,96a.57.57,0,0,0,.08-.34,2.68,2.68,0,0,0,0-.39,3.19,3.19,0,0,0-.08-.46l-.64-3.37A13.81,13.81,0,0,0,29,89.92a4.14,4.14,0,0,0-.44-1,2.44,2.44,0,0,0-.6-.67,4,4,0,0,0-.79-.48v0a4.08,4.08,0,0,0,.9-.42,5.23,5.23,0,0,0,.83-.65,7.57,7.57,0,0,0,.82-1,14.92,14.92,0,0,0,.88-1.39l1.67-2.9c.17-.28.28-.5.36-.66A1.14,1.14,0,0,0,32.69,80.31Z"/><path class="cls-2" d="M46.56,81.06a5.07,5.07,0,0,0-2-1.06,10.64,10.64,0,0,0-5.86.15,8.24,8.24,0,0,0-2.44,1.36,8.64,8.64,0,0,0-1.79,2,11.2,11.2,0,0,0-1.21,2.36,14.06,14.06,0,0,0-.66,2.53,15.47,15.47,0,0,0-.21,2.48,7.16,7.16,0,0,0,.41,2.52,4.34,4.34,0,0,0,1.21,1.77,5.13,5.13,0,0,0,2,1,9.93,9.93,0,0,0,2.69.34A9.16,9.16,0,0,0,41.91,96a8.05,8.05,0,0,0,2.46-1.38,8.64,8.64,0,0,0,1.78-2,12.26,12.26,0,0,0,1.18-2.38,14.12,14.12,0,0,0,.64-2.5,14.45,14.45,0,0,0,.21-2.37,7.23,7.23,0,0,0-.41-2.54A4.58,4.58,0,0,0,46.56,81.06Zm-2,6.18A11.34,11.34,0,0,1,44.21,89a10.88,10.88,0,0,1-.67,1.77,6.38,6.38,0,0,1-1,1.54,4.73,4.73,0,0,1-1.44,1.09,4.16,4.16,0,0,1-1.91.41,4.42,4.42,0,0,1-1.51-.22,2.41,2.41,0,0,1-1.55-1.69,5.42,5.42,0,0,1-.17-1.4A12.6,12.6,0,0,1,36,89a12,12,0,0,1,.36-1.76,10.88,10.88,0,0,1,.67-1.77,6.22,6.22,0,0,1,1-1.56,4.93,4.93,0,0,1,1.45-1.1,4.18,4.18,0,0,1,1.92-.42,4.38,4.38,0,0,1,1.5.23,2.69,2.69,0,0,1,1,.66,2.62,2.62,0,0,1,.54,1,5.07,5.07,0,0,1,.17,1.4A12.57,12.57,0,0,1,44.57,87.24Z"/><path class="cls-2" d="M62.57,80H53.35a1.26,1.26,0,0,0-.76.25,1.25,1.25,0,0,0-.45.8L49.31,95.2a1.14,1.14,0,0,0,0,.48.68.68,0,0,0,.45.51,1.23,1.23,0,0,0,.39.06H54.2c.65,0,1.23,0,1.73-.08A10.94,10.94,0,0,0,57.32,96a6.32,6.32,0,0,0,1.59-.55,5.91,5.91,0,0,0,1.21-.8,5.32,5.32,0,0,0,.87-1,6.19,6.19,0,0,0,.56-1.08,5.12,5.12,0,0,0,.31-1.09,5.31,5.31,0,0,0,.1-1,3.75,3.75,0,0,0-.19-1.15,3.49,3.49,0,0,0-.56-1,3.69,3.69,0,0,0-1-.83,4.68,4.68,0,0,0-1.34-.58,5.93,5.93,0,0,0-1.14-.18c-.42,0-1,0-1.68,0H54.34l.8-4.06h6.92a.41.41,0,0,0,.28-.12,1.63,1.63,0,0,0,.22-.32,4.29,4.29,0,0,0,.16-.43,4,4,0,0,0,.11-.47,4.39,4.39,0,0,0,.07-.44,2.23,2.23,0,0,0,0-.32C62.93,80.11,62.81,80,62.57,80Zm-7.06,9a10,10,0,0,1,1.25.06,3.76,3.76,0,0,1,.73.17,1.64,1.64,0,0,1,1,1.56,2.78,2.78,0,0,1-.13.87,3.24,3.24,0,0,1-.36.75,2.94,2.94,0,0,1-.56.61,2.54,2.54,0,0,1-.72.41l-.39.13a2.5,2.5,0,0,1-.43.09l-.52,0-.74,0H52.9l1-4.72Z"/><path class="cls-2" d="M78.55,80.38a.33.33,0,0,0-.06-.34.8.8,0,0,0-.46-.15q-.33,0-.9,0l-1,0a4,4,0,0,0-.62.09.9.9,0,0,0-.38.18.81.81,0,0,0-.24.28l-2.86,5c-.32.55-.63,1.1-.92,1.64s-.58,1.11-.88,1.69h0c-.12-.52-.24-1-.37-1.54s-.26-1-.41-1.56l-1.39-5a2.28,2.28,0,0,0-.14-.42.44.44,0,0,0-.26-.24,1.47,1.47,0,0,0-.51-.12c-.23,0-.53,0-.93,0a7.93,7.93,0,0,0-1,0,1,1,0,0,0-.5.19.46.46,0,0,0-.14.39,3,3,0,0,0,.13.66l3.17,10.77a6.23,6.23,0,0,1-.55.77,3.55,3.55,0,0,1-.53.51,1.73,1.73,0,0,1-.52.27,1.89,1.89,0,0,1-.51.07,1.65,1.65,0,0,1-.59-.08,2.16,2.16,0,0,1-.4-.18l-.29-.19A.43.43,0,0,0,64.3,93a.34.34,0,0,0-.27.15,1.75,1.75,0,0,0-.22.39,2.35,2.35,0,0,0-.16.51c0,.19-.08.37-.11.54s0,.34-.06.48a2.28,2.28,0,0,0,0,.32.69.69,0,0,0,.19.51,1.09,1.09,0,0,0,.38.25,3.66,3.66,0,0,0,.53.18,5.59,5.59,0,0,0,.59.11c.21,0,.4,0,.57,0a7.05,7.05,0,0,0,1.74-.2,4.23,4.23,0,0,0,1.48-.75A8.28,8.28,0,0,0,70.38,94,26.58,26.58,0,0,0,72,91.47L78.27,81A2.93,2.93,0,0,0,78.55,80.38Z"/><path class="cls-2" d="M99.28,80.71a.87.87,0,0,0-.17-.42.79.79,0,0,0-.35-.26,1.82,1.82,0,0,0-.55-.08H95.87a3.36,3.36,0,0,0-.89.1,2.34,2.34,0,0,0-.69.34,2.69,2.69,0,0,0-.56.6,6,6,0,0,0-.5.85l-5.6,9.7h-.06L86,81.84a3.49,3.49,0,0,0-.18-.89,1.34,1.34,0,0,0-1-.91,4.38,4.38,0,0,0-1-.09H81.77a1.91,1.91,0,0,0-.54.08,1.39,1.39,0,0,0-.44.26,1.59,1.59,0,0,0-.33.43,1.85,1.85,0,0,0-.2.56l-2.9,14.53a.28.28,0,0,0,0,.22.34.34,0,0,0,.21.17,2.06,2.06,0,0,0,.47.09q.3,0,.78,0c.32,0,.58,0,.79,0a2.4,2.4,0,0,0,.49-.09.51.51,0,0,0,.26-.17.46.46,0,0,0,.11-.22l2.66-13.28h0l1.92,13.29c0,.14.13.26.37.36a3.37,3.37,0,0,0,1.18.14,5.59,5.59,0,0,0,1.23-.1.81.81,0,0,0,.58-.43l7.4-13.25h0L93.23,95.81a.4.4,0,0,0,0,.22.34.34,0,0,0,.21.17,2.06,2.06,0,0,0,.47.09c.2,0,.46,0,.79,0s.57,0,.78,0a2.38,2.38,0,0,0,.5-.09.51.51,0,0,0,.26-.17.57.57,0,0,0,.11-.22l2.9-14.54A2.17,2.17,0,0,0,99.28,80.71Z"/><rect class="cls-3" y="0.07" width="102.99" height="99.99"/></g></g></svg>